<mxfile host="Electron" modified="2023-08-03T03:14:10.156Z" agent="Mozilla/5.0 (Windows NT 10.0; Win64; x64) AppleWebKit/537.36 (KHTML, like Gecko) draw.io/21.5.0 Chrome/112.0.5615.204 Electron/24.5.1 Safari/537.36" etag="CTyRv9V1_of2WuAp8i-9" version="21.5.0" type="device">
  <diagram name="第 1 页" id="5PUK4e7TKoES1DkAWqMF">
    <mxGraphModel dx="477" dy="277" grid="1" gridSize="10" guides="1" tooltips="1" connect="1" arrows="1" fold="1" page="1" pageScale="1" pageWidth="1169" pageHeight="827" math="0" shadow="0">
      <root>
        <mxCell id="0" />
        <mxCell id="1" parent="0" />
        <mxCell id="wsk78Yr-5t8O2dpXKYXg-259" value="" style="endArrow=classic;html=1;rounded=0;strokeWidth=1;edgeStyle=orthogonalEdgeStyle;entryX=0.919;entryY=0.594;entryDx=0;entryDy=0;entryPerimeter=0;" parent="1" target="ytpfxaH18-vb2GoejzVN-55" edge="1">
          <mxGeometry width="50" height="50" relative="1" as="geometry">
            <mxPoint x="224.68" y="200.1" as="sourcePoint" />
            <mxPoint x="340" y="250" as="targetPoint" />
            <Array as="points">
              <mxPoint x="330" y="200" />
              <mxPoint x="330" y="267" />
            </Array>
          </mxGeometry>
        </mxCell>
        <mxCell id="wsk78Yr-5t8O2dpXKYXg-266" value="&lt;span style=&quot;color: rgb(0, 0, 0); font-family: Helvetica; font-style: normal; font-variant-ligatures: normal; font-variant-caps: normal; font-weight: 400; letter-spacing: normal; orphans: 2; text-align: center; text-indent: 0px; text-transform: none; widows: 2; word-spacing: 0px; -webkit-text-stroke-width: 0px; text-decoration-thickness: initial; text-decoration-style: initial; text-decoration-color: initial; float: none; display: inline !important;&quot;&gt;&lt;font style=&quot;font-size: 10px;&quot;&gt;branch_request_i&lt;/font&gt;&lt;/span&gt;" style="text;whiteSpace=wrap;html=1;" parent="1" vertex="1">
          <mxGeometry x="236.5" y="178.1" width="88" height="22" as="geometry" />
        </mxCell>
        <mxCell id="wsk78Yr-5t8O2dpXKYXg-282" value="" style="endArrow=classic;html=1;rounded=0;strokeWidth=1;entryX=-0.012;entryY=0.474;entryDx=0;entryDy=0;entryPerimeter=0;" parent="1" edge="1" target="rzKqz1p6IMOkEppADOlo-1">
          <mxGeometry width="50" height="50" relative="1" as="geometry">
            <mxPoint x="530" y="290" as="sourcePoint" />
            <mxPoint x="559.2863000000002" y="288.9079999999999" as="targetPoint" />
          </mxGeometry>
        </mxCell>
        <mxCell id="wsk78Yr-5t8O2dpXKYXg-284" value="" style="endArrow=classic;html=1;rounded=0;strokeWidth=1;" parent="1" edge="1">
          <mxGeometry width="50" height="50" relative="1" as="geometry">
            <mxPoint x="600" y="290" as="sourcePoint" />
            <mxPoint x="740" y="290" as="targetPoint" />
          </mxGeometry>
        </mxCell>
        <mxCell id="wsk78Yr-5t8O2dpXKYXg-285" value="&lt;font style=&quot;font-size: 10px;&quot;&gt;icache_pc_w[31:0]&lt;/font&gt;" style="text;html=1;align=center;verticalAlign=middle;resizable=0;points=[];autosize=1;strokeColor=none;fillColor=none;" parent="1" vertex="1">
          <mxGeometry x="624.3499999999999" y="267" width="110" height="30" as="geometry" />
        </mxCell>
        <mxCell id="wsk78Yr-5t8O2dpXKYXg-287" value="&lt;font style=&quot;font-size: 10px;&quot;&gt;icache_pc_o[31:0]&lt;/font&gt;" style="text;html=1;align=center;verticalAlign=middle;resizable=0;points=[];autosize=1;strokeColor=none;fillColor=none;" parent="1" vertex="1">
          <mxGeometry x="620.45" y="466.8" width="100" height="30" as="geometry" />
        </mxCell>
        <mxCell id="wsk78Yr-5t8O2dpXKYXg-288" value="D" style="rounded=1;whiteSpace=wrap;html=1;rotation=0;" parent="1" vertex="1">
          <mxGeometry x="740.3499999999999" y="260" width="39.65" height="63" as="geometry" />
        </mxCell>
        <mxCell id="wsk78Yr-5t8O2dpXKYXg-337" value="" style="endArrow=classic;html=1;rounded=0;strokeWidth=2;exitX=0.56;exitY=-0.006;exitDx=0;exitDy=0;exitPerimeter=0;" parent="1" source="ytpfxaH18-vb2GoejzVN-34" edge="1">
          <mxGeometry width="50" height="50" relative="1" as="geometry">
            <mxPoint x="856.3421999999998" y="471.45120000000003" as="sourcePoint" />
            <mxPoint x="990" y="470" as="targetPoint" />
          </mxGeometry>
        </mxCell>
        <mxCell id="wsk78Yr-5t8O2dpXKYXg-342" value="&lt;span style=&quot;color: rgb(0, 0, 0); font-family: Helvetica; font-style: normal; font-variant-ligatures: normal; font-variant-caps: normal; font-weight: 400; letter-spacing: normal; orphans: 2; text-align: center; text-indent: 0px; text-transform: none; widows: 2; word-spacing: 0px; -webkit-text-stroke-width: 0px; text-decoration-thickness: initial; text-decoration-style: initial; text-decoration-color: initial; float: none; display: inline !important;&quot;&gt;&lt;font style=&quot;font-size: 10px;&quot;&gt;fetch_instr_o[63:0]&lt;/font&gt;&lt;/span&gt;" style="text;whiteSpace=wrap;html=1;" parent="1" vertex="1">
          <mxGeometry x="884.6500000000001" y="447.99999999999994" width="100" height="26" as="geometry" />
        </mxCell>
        <mxCell id="wsk78Yr-5t8O2dpXKYXg-344" value="&lt;font color=&quot;#000000&quot; style=&quot;font-size: 12px;&quot;&gt;MMU&lt;/font&gt;" style="rounded=1;whiteSpace=wrap;html=1;fillColor=#FFFFFF;fontColor=#333333;strokeColor=#000000;" parent="1" vertex="1">
          <mxGeometry x="725" y="468.8" width="75" height="40" as="geometry" />
        </mxCell>
        <mxCell id="sfXdXZ_Vd8Ir4kp_DBNq-2" value="" style="endArrow=classic;html=1;rounded=0;entryX=-0.002;entryY=0.526;entryDx=0;entryDy=0;strokeWidth=1;entryPerimeter=0;" parent="1" target="wsk78Yr-5t8O2dpXKYXg-344" edge="1">
          <mxGeometry width="50" height="50" relative="1" as="geometry">
            <mxPoint x="620" y="290" as="sourcePoint" />
            <mxPoint x="640" y="420" as="targetPoint" />
            <Array as="points">
              <mxPoint x="620" y="490" />
            </Array>
          </mxGeometry>
        </mxCell>
        <mxCell id="sfXdXZ_Vd8Ir4kp_DBNq-3" value="" style="endArrow=classic;html=1;rounded=0;strokeWidth=2;" parent="1" edge="1">
          <mxGeometry width="50" height="50" relative="1" as="geometry">
            <mxPoint x="800" y="489" as="sourcePoint" />
            <mxPoint x="830" y="489" as="targetPoint" />
          </mxGeometry>
        </mxCell>
        <mxCell id="sfXdXZ_Vd8Ir4kp_DBNq-14" value="&lt;span style=&quot;color: rgb(0, 0, 0); font-family: Helvetica; font-style: normal; font-variant-ligatures: normal; font-variant-caps: normal; font-weight: 400; letter-spacing: normal; orphans: 2; text-align: center; text-indent: 0px; text-transform: none; widows: 2; word-spacing: 0px; -webkit-text-stroke-width: 0px; text-decoration-thickness: initial; text-decoration-style: initial; text-decoration-color: initial; float: none; display: inline !important;&quot;&gt;&lt;font style=&quot;font-size: 10px;&quot;&gt;branch_request_i&lt;/font&gt;&lt;/span&gt;" style="text;whiteSpace=wrap;html=1;" parent="1" vertex="1">
          <mxGeometry x="430.68" y="178.1" width="88" height="22" as="geometry" />
        </mxCell>
        <mxCell id="sfXdXZ_Vd8Ir4kp_DBNq-19" value="" style="endArrow=classic;html=1;rounded=0;entryX=0.098;entryY=0.535;entryDx=0;entryDy=0;entryPerimeter=0;" parent="1" edge="1" target="ytpfxaH18-vb2GoejzVN-34">
          <mxGeometry width="50" height="50" relative="1" as="geometry">
            <mxPoint x="840" y="510" as="sourcePoint" />
            <mxPoint x="839.3800000000001" y="491.8" as="targetPoint" />
          </mxGeometry>
        </mxCell>
        <mxCell id="sfXdXZ_Vd8Ir4kp_DBNq-21" value="skid_valid_q" style="text;whiteSpace=wrap;fontSize=10;" parent="1" vertex="1">
          <mxGeometry x="808.3000000000001" y="501.8" width="64.8" height="22.2" as="geometry" />
        </mxCell>
        <mxCell id="sfXdXZ_Vd8Ir4kp_DBNq-23" value="" style="endArrow=none;html=1;rounded=0;" parent="1" edge="1">
          <mxGeometry width="50" height="50" relative="1" as="geometry">
            <mxPoint x="620" y="490" as="sourcePoint" />
            <mxPoint x="300" y="310" as="targetPoint" />
            <Array as="points">
              <mxPoint x="300" y="490" />
            </Array>
          </mxGeometry>
        </mxCell>
        <mxCell id="rzKqz1p6IMOkEppADOlo-1" value="D" style="rounded=1;whiteSpace=wrap;html=1;rotation=0;" parent="1" vertex="1">
          <mxGeometry x="560" y="260" width="39.65" height="63" as="geometry" />
        </mxCell>
        <mxCell id="ytpfxaH18-vb2GoejzVN-1" value="" style="verticalLabelPosition=middle;verticalAlign=middle;html=1;shape=trapezoid;perimeter=trapezoidPerimeter;whiteSpace=wrap;size=0.23;arcSize=10;flipV=1;labelPosition=center;align=center;rotation=-90;" vertex="1" parent="1">
          <mxGeometry x="817.2" y="230.4" width="47" height="21.4" as="geometry" />
        </mxCell>
        <mxCell id="ytpfxaH18-vb2GoejzVN-2" value="" style="endArrow=classic;html=1;rounded=0;strokeWidth=1;exitX=1.004;exitY=0.471;exitDx=0;exitDy=0;exitPerimeter=0;entryX=0.313;entryY=1.026;entryDx=0;entryDy=0;entryPerimeter=0;" edge="1" parent="1" source="wsk78Yr-5t8O2dpXKYXg-288" target="ytpfxaH18-vb2GoejzVN-1">
          <mxGeometry width="50" height="50" relative="1" as="geometry">
            <mxPoint x="780.45" y="287.5" as="sourcePoint" />
            <mxPoint x="830" y="250" as="targetPoint" />
            <Array as="points">
              <mxPoint x="800" y="290" />
              <mxPoint x="800" y="250" />
            </Array>
          </mxGeometry>
        </mxCell>
        <mxCell id="ytpfxaH18-vb2GoejzVN-11" value="" style="endArrow=classic;html=1;rounded=0;strokeWidth=1;" edge="1" parent="1">
          <mxGeometry width="50" height="50" relative="1" as="geometry">
            <mxPoint x="780" y="190" as="sourcePoint" />
            <mxPoint x="830" y="230.00000000000003" as="targetPoint" />
            <Array as="points">
              <mxPoint x="800" y="190" />
              <mxPoint x="800" y="230" />
            </Array>
          </mxGeometry>
        </mxCell>
        <mxCell id="ytpfxaH18-vb2GoejzVN-12" value="&lt;span style=&quot;color: rgb(0, 0, 0); font-family: Helvetica; font-style: normal; font-variant-ligatures: normal; font-variant-caps: normal; font-weight: 400; letter-spacing: normal; orphans: 2; text-align: center; text-indent: 0px; text-transform: none; widows: 2; word-spacing: 0px; -webkit-text-stroke-width: 0px; background-color: rgb(251, 251, 251); text-decoration-thickness: initial; text-decoration-style: initial; text-decoration-color: initial; float: none; display: inline !important;&quot;&gt;&lt;font style=&quot;font-size: 10px;&quot;&gt;fetch_pc_o[31:0]&lt;/font&gt;&lt;/span&gt;" style="text;whiteSpace=wrap;html=1;" vertex="1" parent="1">
          <mxGeometry x="894.6500000000001" y="218.4" width="95.8" height="19" as="geometry" />
        </mxCell>
        <mxCell id="ytpfxaH18-vb2GoejzVN-13" value="" style="endArrow=classic;html=1;rounded=0;entryX=0.133;entryY=0.378;entryDx=0;entryDy=0;entryPerimeter=0;" edge="1" parent="1">
          <mxGeometry width="50" height="50" relative="1" as="geometry">
            <mxPoint x="840.53" y="275" as="sourcePoint" />
            <mxPoint x="840.53" y="260" as="targetPoint" />
          </mxGeometry>
        </mxCell>
        <mxCell id="ytpfxaH18-vb2GoejzVN-15" value="skid_valid_q" style="text;whiteSpace=wrap;fontSize=10;" vertex="1" parent="1">
          <mxGeometry x="817.2" y="267" width="40.55" height="14" as="geometry" />
        </mxCell>
        <mxCell id="ytpfxaH18-vb2GoejzVN-16" value="skid buffer" style="rounded=1;whiteSpace=wrap;html=1;rotation=0;" vertex="1" parent="1">
          <mxGeometry x="740" y="165.9" width="39.65" height="63" as="geometry" />
        </mxCell>
        <mxCell id="ytpfxaH18-vb2GoejzVN-17" value="" style="verticalLabelPosition=middle;verticalAlign=middle;html=1;shape=trapezoid;perimeter=trapezoidPerimeter;whiteSpace=wrap;size=0.23;arcSize=10;flipV=1;labelPosition=center;align=center;rotation=-90;" vertex="1" parent="1">
          <mxGeometry x="664" y="175.7" width="47" height="21.4" as="geometry" />
        </mxCell>
        <mxCell id="ytpfxaH18-vb2GoejzVN-18" value="" style="endArrow=classic;html=1;rounded=0;strokeWidth=2;entryX=0.229;entryY=1.016;entryDx=0;entryDy=0;entryPerimeter=0;" edge="1" parent="1" target="ytpfxaH18-vb2GoejzVN-17">
          <mxGeometry width="50" height="50" relative="1" as="geometry">
            <mxPoint x="610" y="199.1" as="sourcePoint" />
            <mxPoint x="677" y="199.5" as="targetPoint" />
          </mxGeometry>
        </mxCell>
        <mxCell id="ytpfxaH18-vb2GoejzVN-19" value="&lt;font style=&quot;font-size: 10px;&quot;&gt;100&#39;b0&lt;/font&gt;" style="text;html=1;align=center;verticalAlign=middle;resizable=0;points=[];autosize=1;strokeColor=none;fillColor=none;" vertex="1" parent="1">
          <mxGeometry x="620" y="178.1" width="50" height="30" as="geometry" />
        </mxCell>
        <mxCell id="ytpfxaH18-vb2GoejzVN-20" value="" style="endArrow=classic;html=1;rounded=0;entryX=0.133;entryY=0.378;entryDx=0;entryDy=0;entryPerimeter=0;" edge="1" parent="1" target="ytpfxaH18-vb2GoejzVN-17">
          <mxGeometry width="50" height="50" relative="1" as="geometry">
            <mxPoint x="690" y="219.1" as="sourcePoint" />
            <mxPoint x="693.3599999999999" y="206.1" as="targetPoint" />
          </mxGeometry>
        </mxCell>
        <mxCell id="ytpfxaH18-vb2GoejzVN-21" value="skid_valid_q" style="text;whiteSpace=wrap;fontSize=10;" vertex="1" parent="1">
          <mxGeometry x="663" y="211.20000000000002" width="40.55" height="14" as="geometry" />
        </mxCell>
        <mxCell id="ytpfxaH18-vb2GoejzVN-22" value="" style="endArrow=classic;html=1;rounded=0;strokeWidth=1;exitX=0.5;exitY=-0.003;exitDx=0;exitDy=0;entryX=-0.002;entryY=0.323;entryDx=0;entryDy=0;entryPerimeter=0;exitPerimeter=0;" edge="1" parent="1" source="ytpfxaH18-vb2GoejzVN-17" target="ytpfxaH18-vb2GoejzVN-16">
          <mxGeometry width="50" height="50" relative="1" as="geometry">
            <mxPoint x="704.1201999999998" y="186.75300000000007" as="sourcePoint" />
            <mxPoint x="739" y="186.66000000000003" as="targetPoint" />
          </mxGeometry>
        </mxCell>
        <mxCell id="ytpfxaH18-vb2GoejzVN-23" value="" style="endArrow=classic;html=1;rounded=0;entryX=0.657;entryY=1.018;entryDx=0;entryDy=0;entryPerimeter=0;" edge="1" parent="1" target="ytpfxaH18-vb2GoejzVN-17">
          <mxGeometry width="50" height="50" relative="1" as="geometry">
            <mxPoint x="870" y="240" as="sourcePoint" />
            <mxPoint x="914.2" y="165.9" as="targetPoint" />
            <Array as="points">
              <mxPoint x="870" y="150" />
              <mxPoint x="610" y="149.1" />
              <mxPoint x="610" y="179.1" />
            </Array>
          </mxGeometry>
        </mxCell>
        <mxCell id="ytpfxaH18-vb2GoejzVN-24" value="" style="endArrow=classic;html=1;rounded=0;strokeWidth=1;exitX=0.487;exitY=0.011;exitDx=0;exitDy=0;exitPerimeter=0;" edge="1" parent="1">
          <mxGeometry width="50" height="50" relative="1" as="geometry">
            <mxPoint x="851.75" y="240.06" as="sourcePoint" />
            <mxPoint x="990.75" y="240.06" as="targetPoint" />
          </mxGeometry>
        </mxCell>
        <mxCell id="ytpfxaH18-vb2GoejzVN-25" value="skid buffer" style="rounded=1;whiteSpace=wrap;html=1;rotation=0;" vertex="1" parent="1">
          <mxGeometry x="740.35" y="382" width="39.65" height="63" as="geometry" />
        </mxCell>
        <mxCell id="ytpfxaH18-vb2GoejzVN-26" value="" style="verticalLabelPosition=middle;verticalAlign=middle;html=1;shape=trapezoid;perimeter=trapezoidPerimeter;whiteSpace=wrap;size=0.23;arcSize=10;flipV=1;labelPosition=center;align=center;rotation=-90;" vertex="1" parent="1">
          <mxGeometry x="684.1" y="390" width="47" height="21.4" as="geometry" />
        </mxCell>
        <mxCell id="ytpfxaH18-vb2GoejzVN-27" value="" style="endArrow=classic;html=1;rounded=0;strokeWidth=2;entryX=0.176;entryY=1.009;entryDx=0;entryDy=0;entryPerimeter=0;" edge="1" parent="1" target="ytpfxaH18-vb2GoejzVN-26">
          <mxGeometry width="50" height="50" relative="1" as="geometry">
            <mxPoint x="640" y="416" as="sourcePoint" />
            <mxPoint x="696.1" y="406.4" as="targetPoint" />
          </mxGeometry>
        </mxCell>
        <mxCell id="ytpfxaH18-vb2GoejzVN-28" value="" style="endArrow=classic;html=1;rounded=0;strokeWidth=2;exitX=0.533;exitY=-0.01;exitDx=0;exitDy=0;exitPerimeter=0;" edge="1" parent="1" source="ytpfxaH18-vb2GoejzVN-26">
          <mxGeometry width="50" height="50" relative="1" as="geometry">
            <mxPoint x="719.6644000000002" y="399.18700000000007" as="sourcePoint" />
            <mxPoint x="740" y="399" as="targetPoint" />
          </mxGeometry>
        </mxCell>
        <mxCell id="ytpfxaH18-vb2GoejzVN-29" value="" style="endArrow=classic;html=1;rounded=0;strokeWidth=2;endFill=1;entryX=0.81;entryY=1.027;entryDx=0;entryDy=0;entryPerimeter=0;" edge="1" parent="1" target="ytpfxaH18-vb2GoejzVN-26">
          <mxGeometry width="50" height="50" relative="1" as="geometry">
            <mxPoint x="870" y="470" as="sourcePoint" />
            <mxPoint x="696.1" y="385" as="targetPoint" />
            <Array as="points">
              <mxPoint x="870" y="350" />
              <mxPoint x="640" y="350" />
              <mxPoint x="640" y="386" />
            </Array>
          </mxGeometry>
        </mxCell>
        <mxCell id="ytpfxaH18-vb2GoejzVN-30" value="" style="endArrow=classic;html=1;rounded=0;strokeWidth=2;entryX=0.77;entryY=1;entryDx=0;entryDy=0;entryPerimeter=0;exitX=1.005;exitY=0.447;exitDx=0;exitDy=0;exitPerimeter=0;" edge="1" parent="1" source="ytpfxaH18-vb2GoejzVN-25" target="ytpfxaH18-vb2GoejzVN-34">
          <mxGeometry width="50" height="50" relative="1" as="geometry">
            <mxPoint x="779.65" y="409.40000000000003" as="sourcePoint" />
            <mxPoint x="824.65" y="409.40000000000003" as="targetPoint" />
            <Array as="points">
              <mxPoint x="800" y="410" />
              <mxPoint x="800" y="460" />
            </Array>
          </mxGeometry>
        </mxCell>
        <mxCell id="ytpfxaH18-vb2GoejzVN-31" value="&lt;font style=&quot;font-size: 10px;&quot;&gt;100&#39;b0&lt;/font&gt;" style="text;html=1;align=center;verticalAlign=middle;resizable=0;points=[];autosize=1;strokeColor=none;fillColor=none;" vertex="1" parent="1">
          <mxGeometry x="640.1" y="394" width="50" height="30" as="geometry" />
        </mxCell>
        <mxCell id="ytpfxaH18-vb2GoejzVN-32" value="" style="endArrow=classic;html=1;rounded=0;entryX=0.133;entryY=0.378;entryDx=0;entryDy=0;entryPerimeter=0;" edge="1" parent="1">
          <mxGeometry width="50" height="50" relative="1" as="geometry">
            <mxPoint x="710.1" y="433" as="sourcePoint" />
            <mxPoint x="710.1" y="418" as="targetPoint" />
          </mxGeometry>
        </mxCell>
        <mxCell id="ytpfxaH18-vb2GoejzVN-33" value="skid_valid_q" style="text;whiteSpace=wrap;fontSize=10;" vertex="1" parent="1">
          <mxGeometry x="680.1" y="424" width="40.55" height="14" as="geometry" />
        </mxCell>
        <mxCell id="ytpfxaH18-vb2GoejzVN-34" value="" style="verticalLabelPosition=middle;verticalAlign=middle;html=1;shape=trapezoid;perimeter=trapezoidPerimeter;whiteSpace=wrap;size=0.23;arcSize=10;flipV=1;labelPosition=center;align=center;rotation=-90;" vertex="1" parent="1">
          <mxGeometry x="817.2" y="462" width="47" height="21.4" as="geometry" />
        </mxCell>
        <mxCell id="ytpfxaH18-vb2GoejzVN-39" value="" style="verticalLabelPosition=middle;verticalAlign=middle;html=1;shape=trapezoid;perimeter=trapezoidPerimeter;whiteSpace=wrap;size=0.23;arcSize=10;flipV=1;labelPosition=center;align=center;rotation=-90;" vertex="1" parent="1">
          <mxGeometry x="497" y="288" width="67" height="12" as="geometry" />
        </mxCell>
        <mxCell id="ytpfxaH18-vb2GoejzVN-43" value="" style="endArrow=classic;html=1;rounded=0;strokeWidth=1;entryX=0.121;entryY=1.015;entryDx=0;entryDy=0;entryPerimeter=0;exitX=0.006;exitY=0.759;exitDx=0;exitDy=0;exitPerimeter=0;" edge="1" parent="1">
          <mxGeometry width="50" height="50" relative="1" as="geometry">
            <mxPoint x="423.0999999999999" y="310.2700000000001" as="sourcePoint" />
            <mxPoint x="524.0799999999999" y="309.91600000000005" as="targetPoint" />
          </mxGeometry>
        </mxCell>
        <mxCell id="ytpfxaH18-vb2GoejzVN-44" value="" style="endArrow=classic;html=1;rounded=0;strokeWidth=1;entryX=0.701;entryY=0.997;entryDx=0;entryDy=0;entryPerimeter=0;" edge="1" parent="1">
          <mxGeometry width="50" height="50" relative="1" as="geometry">
            <mxPoint x="407" y="280" as="sourcePoint" />
            <mxPoint x="523.5840000000001" y="279.596" as="targetPoint" />
          </mxGeometry>
        </mxCell>
        <mxCell id="ytpfxaH18-vb2GoejzVN-45" value="&lt;font style=&quot;font-size: 10px;&quot;&gt;branch_pc_w[31:0]&lt;/font&gt;" style="text;html=1;align=center;verticalAlign=middle;resizable=0;points=[];autosize=1;strokeColor=none;fillColor=none;" vertex="1" parent="1">
          <mxGeometry x="413.5" y="256.5" width="110" height="30" as="geometry" />
        </mxCell>
        <mxCell id="ytpfxaH18-vb2GoejzVN-50" value="" style="endArrow=classic;html=1;rounded=0;strokeWidth=1;entryX=0.383;entryY=1.036;entryDx=0;entryDy=0;entryPerimeter=0;" edge="1" parent="1">
          <mxGeometry width="50" height="50" relative="1" as="geometry">
            <mxPoint x="227.5" y="310" as="sourcePoint" />
            <mxPoint x="324.9180000000001" y="309.83899999999994" as="targetPoint" />
            <Array as="points" />
          </mxGeometry>
        </mxCell>
        <mxCell id="ytpfxaH18-vb2GoejzVN-51" value="" style="endArrow=classic;html=1;rounded=0;strokeWidth=1;" edge="1" parent="1">
          <mxGeometry width="50" height="50" relative="1" as="geometry">
            <mxPoint x="227.5" y="280" as="sourcePoint" />
            <mxPoint x="325.5" y="280" as="targetPoint" />
          </mxGeometry>
        </mxCell>
        <mxCell id="ytpfxaH18-vb2GoejzVN-52" value="&lt;font style=&quot;font-size: 10px;&quot;&gt;32&#39;b0&lt;/font&gt;" style="text;html=1;align=center;verticalAlign=middle;resizable=0;points=[];autosize=1;strokeColor=none;fillColor=none;" vertex="1" parent="1">
          <mxGeometry x="275.5" y="259.4" width="50" height="30" as="geometry" />
        </mxCell>
        <mxCell id="ytpfxaH18-vb2GoejzVN-53" value="" style="endArrow=classic;html=1;rounded=0;strokeWidth=1;entryX=-0.008;entryY=0.247;entryDx=0;entryDy=0;entryPerimeter=0;" edge="1" parent="1">
          <mxGeometry width="50" height="50" relative="1" as="geometry">
            <mxPoint x="337.5" y="285" as="sourcePoint" />
            <mxPoint x="366.53279999999995" y="285.0609999999999" as="targetPoint" />
          </mxGeometry>
        </mxCell>
        <mxCell id="ytpfxaH18-vb2GoejzVN-54" value="D" style="rounded=1;whiteSpace=wrap;html=1;rotation=0;" vertex="1" parent="1">
          <mxGeometry x="366.84999999999997" y="260.5" width="39.65" height="63" as="geometry" />
        </mxCell>
        <mxCell id="ytpfxaH18-vb2GoejzVN-55" value="" style="verticalLabelPosition=middle;verticalAlign=middle;html=1;shape=trapezoid;perimeter=trapezoidPerimeter;whiteSpace=wrap;size=0.23;arcSize=10;flipV=1;labelPosition=center;align=center;rotation=-90;" vertex="1" parent="1">
          <mxGeometry x="301.77" y="285.92" width="59.15" height="12" as="geometry" />
        </mxCell>
        <mxCell id="ytpfxaH18-vb2GoejzVN-56" value="&lt;font style=&quot;font-size: 10px;&quot;&gt;branch_pc_i[31:0]&lt;/font&gt;" style="text;html=1;align=center;verticalAlign=middle;resizable=0;points=[];autosize=1;strokeColor=none;fillColor=none;" vertex="1" parent="1">
          <mxGeometry x="222.5" y="287" width="100" height="30" as="geometry" />
        </mxCell>
        <mxCell id="ytpfxaH18-vb2GoejzVN-57" value="" style="endArrow=classic;html=1;rounded=0;entryX=0.9;entryY=0.516;entryDx=0;entryDy=0;entryPerimeter=0;" edge="1" parent="1">
          <mxGeometry width="50" height="50" relative="1" as="geometry">
            <mxPoint x="330" y="200.1" as="sourcePoint" />
            <mxPoint x="530" y="267.1" as="targetPoint" />
            <Array as="points">
              <mxPoint x="530" y="200.1" />
            </Array>
          </mxGeometry>
        </mxCell>
        <mxCell id="ytpfxaH18-vb2GoejzVN-58" value="&lt;font style=&quot;font-size: 10px;&quot;&gt;next_pc_f_i[31:0]&lt;/font&gt;" style="text;html=1;align=center;verticalAlign=middle;resizable=0;points=[];autosize=1;strokeColor=none;fillColor=none;" vertex="1" parent="1">
          <mxGeometry x="422.5" y="286.5" width="100" height="30" as="geometry" />
        </mxCell>
      </root>
    </mxGraphModel>
  </diagram>
</mxfile>
